<svg width="31" height="31" viewBox="0 0 31 31" fill="none" xmlns="http://www.w3.org/2000/svg">
<path d="M22.5764 14.7989L11.7788 4.51073C11.5986 4.33898 11.3592 4.24317 11.1103 4.24317C10.8614 4.24317 10.6221 4.33898 10.4419 4.51073L10.4303 4.52235C10.3426 4.60561 10.2728 4.70583 10.2251 4.81692C10.1775 4.928 10.1529 5.04762 10.1529 5.16851C10.1529 5.2894 10.1775 5.40902 10.2251 5.5201C10.2728 5.63118 10.3426 5.7314 10.4303 5.81467L20.5983 15.5022L10.4303 25.1858C10.3426 25.2691 10.2728 25.3693 10.2251 25.4804C10.1775 25.5914 10.1529 25.7111 10.1529 25.8319C10.1529 25.9528 10.1775 26.0725 10.2251 26.1835C10.2728 26.2946 10.3426 26.3948 10.4303 26.4781L10.4419 26.4897C10.6221 26.6615 10.8614 26.7573 11.1103 26.7573C11.3592 26.7573 11.5986 26.6615 11.7788 26.4897L22.5764 16.2016C22.6714 16.1111 22.747 16.0023 22.7987 15.8818C22.8503 15.7612 22.877 15.6314 22.877 15.5002C22.877 15.3691 22.8503 15.2393 22.7987 15.1187C22.747 14.9981 22.6714 14.8893 22.5764 14.7989Z" fill="black"/>
</svg>
