<svg width="800" height="800" viewBox="0 0 800 800" fill="none" xmlns="http://www.w3.org/2000/svg">
<path d="M672 392C672 241.779 550.22 120 400 120C249.779 120 128 241.779 128 392C128 542.22 249.779 664 400 664C550.22 664 672 542.22 672 392ZM720 392C720 568.73 576.73 712 400 712C223.269 712 80 568.73 80 392C80 215.269 223.269 72 400 72C576.73 72 720 215.269 720 392Z" fill="black"/>
<path d="M429.789 260.802C429.619 268.554 426.4 275.927 420.829 281.319C415.254 286.712 407.779 289.687 400.026 289.601C394.375 289.412 388.906 287.565 384.298 284.288C379.687 281.011 376.147 276.449 374.115 271.173C372.08 265.897 371.645 260.138 372.864 254.616C374.08 249.094 376.896 244.054 380.96 240.122C385.024 236.19 390.154 233.54 395.712 232.505C401.271 231.469 407.014 232.092 412.221 234.298C417.427 236.503 421.869 240.192 424.992 244.905C428.119 249.618 429.786 255.147 429.789 260.802ZM377.309 528.963V356.803C377.223 353.779 377.747 350.768 378.854 347.955C379.962 345.142 381.626 342.582 383.75 340.432C385.872 338.278 388.41 336.576 391.206 335.43C394.003 334.285 397.005 333.715 400.026 333.76C403.008 333.757 405.962 334.358 408.704 335.53C411.447 336.698 413.926 338.41 415.99 340.563C418.054 342.717 419.658 345.264 420.71 348.054C421.763 350.845 422.237 353.821 422.106 356.803V528.963C422.106 531.904 421.526 534.816 420.403 537.533C419.277 540.25 417.626 542.72 415.546 544.8C413.466 546.88 410.998 548.528 408.282 549.654C405.562 550.781 402.65 551.36 399.709 551.36C396.768 551.36 393.853 550.781 391.136 549.654C388.419 548.528 385.949 546.88 383.869 544.8C381.789 542.72 380.138 540.25 379.015 537.533C377.888 534.816 377.309 531.904 377.309 528.963Z" fill="black"/>
</svg>
