<svg width="24" height="24" viewBox="0 0 24 24" fill="none" xmlns="http://www.w3.org/2000/svg">
<path d="M19 4.91005C18.0831 3.98416 16.991 3.25002 15.7875 2.75042C14.584 2.25081 13.2931 1.99574 11.99 2.00005C6.53 2.00005 2.08 6.45005 2.08 11.9101C2.08 13.6601 2.54 15.3601 3.4 16.8601L2 22.0001L7.25 20.6201C8.7 21.4101 10.33 21.8301 11.99 21.8301C17.45 21.8301 21.9 17.3801 21.9 11.9201C21.9 9.27005 20.87 6.78005 19 4.91005ZM11.99 20.1501C10.51 20.1501 9.06 19.7501 7.79 19.0001L7.49 18.8201L4.37 19.6401L5.2 16.6001L5 16.2901C4.17755 14.9771 3.74092 13.4593 3.74 11.9101C3.74 7.37005 7.44 3.67005 11.98 3.67005C14.18 3.67005 16.25 4.53005 17.8 6.09005C18.5676 6.85392 19.1759 7.7626 19.5896 8.76338C20.0033 9.76417 20.2142 10.8371 20.21 11.9201C20.23 16.4601 16.53 20.1501 11.99 20.1501ZM16.51 13.9901C16.26 13.8701 15.04 13.2701 14.82 13.1801C14.59 13.1001 14.43 13.0601 14.26 13.3001C14.09 13.5501 13.62 14.1101 13.48 14.2701C13.34 14.4401 13.19 14.4601 12.94 14.3301C12.69 14.2101 11.89 13.9401 10.95 13.1001C10.21 12.4401 9.72 11.6301 9.57 11.3801C9.43 11.1301 9.55 11.0001 9.68 10.8701C9.79 10.7601 9.93 10.5801 10.05 10.4401C10.17 10.3001 10.22 10.1901 10.3 10.0301C10.38 9.86005 10.34 9.72005 10.28 9.60005C10.22 9.48005 9.72 8.26005 9.52 7.76005C9.32 7.28005 9.11 7.34005 8.96 7.33005H8.48C8.31 7.33005 8.05 7.39005 7.82 7.64005C7.6 7.89005 6.96 8.49005 6.96 9.71005C6.96 10.9301 7.85 12.1101 7.97 12.2701C8.09 12.4401 9.72 14.9401 12.2 16.0101C12.79 16.2701 13.25 16.4201 13.61 16.5301C14.2 16.7201 14.74 16.6901 15.17 16.6301C15.65 16.5601 16.64 16.0301 16.84 15.4501C17.05 14.8701 17.05 14.3801 16.98 14.2701C16.91 14.1601 16.76 14.1101 16.51 13.9901Z" fill="#6B6B6B"/>
</svg>
